<?xml version="1.0" encoding="UTF-8"?>
<svg width="275px" height="275px" viewBox="0 0 275 275" version="1.1" xmlns="http://www.w3.org/2000/svg" xmlns:xlink="http://www.w3.org/1999/xlink">
    <title>Artboard Copy</title>
    <g id="Artboard-Copy" stroke="none" stroke-width="1" fill="none" fill-rule="evenodd">
        <g id="Group-3-Copy" transform="translate(0.000000, 79.000000)" fill="#6696FF">
            <path d="M40.2363649,75.7754136 C41.5613049,74.6593011 42.6680504,73.192736 43.5566015,71.3757183 C44.4451526,69.5587007 44.7284472,67.6459863 44.4064853,65.6375753 C43.511371,63.8030127 42.3073439,61.6226222 40.7944039,59.0964038 C33.9610549,47.946647 29.5506319,40.0360281 27.563135,35.3645474 C27.2318855,34.5859673 26.6242975,34.0926562 25.7403708,33.8846141 C24.8564442,33.6765719 23.9206483,33.6971589 22.9329832,33.9463748 C21.9453181,34.1955907 21.0509332,34.6660362 20.2498286,35.3577113 C19.448724,36.0493864 18.9807206,36.8506321 18.8458184,37.7614485 C18.7109162,38.6722648 18.324094,39.4603327 17.6853519,40.1256521 C17.0466098,40.7909714 16.4260114,41.4553659 15.8235566,42.1188354 C15.2211019,42.7823049 14.7665887,43.492469 14.4600171,44.2493277 C14.1534454,45.0061863 14.2592949,45.8233751 14.7775654,46.700894 L14.7775654,46.700894 L15.9751067,50.8702815 L16.8027699,53.1602523 C17.4150308,55.1538644 18.0598562,57.0735014 18.7372463,58.9191631 C20.9899425,65.2042152 21.6390092,71.0828901 20.6844466,76.5551877 C19.0189115,73.892118 17.4240899,71.1892859 15.8999816,68.4466914 C14.3758733,65.7040969 13.2453419,62.8329659 12.5083874,59.8332983 C11.7621454,58.0634617 10.6683909,56.9621769 9.22712398,56.529444 C7.78585704,56.096711 6.38018671,56.1774088 5.01011298,56.7715373 C3.64003925,57.3656659 2.44698884,58.3937003 1.43096174,59.8556408 C0.414934651,61.3175812 -0.0600344479,63.0412001 0.00605444605,65.0264975 C3.46934096,77.1435204 8.31801414,85.791107 14.552074,90.9692575 C16.3376201,92.4330094 18.2187587,93.105461 20.1954898,92.9866122 C22.1722209,92.8677634 24.0130998,92.2315554 25.7181265,91.077988 C27.4231531,89.9244206 28.8927724,88.4393569 30.1269842,86.6227969 C31.361196,84.8062368 32.1322785,83.0042469 32.4402317,81.216827 C32.7481848,79.4294071 32.9454145,77.6114741 33.0319206,75.7630279 C33.7214,77.1380249 34.7632756,77.7628666 36.1575474,77.6375529 C37.5518191,77.5122392 38.911425,76.8915261 40.2363649,75.7754136 Z M54.0669923,64.1399613 C59.5963277,62.2188505 62.4881443,58.9624612 62.7424424,54.3707932 C62.760297,53.2744735 62.6977747,52.1899441 62.5548756,51.117205 C62.4119764,50.0444659 62.3199282,48.7887857 62.2787309,47.3501645 C62.2375336,45.9115434 62.1971372,44.6442056 62.1575416,43.5481511 C62.117946,42.4520967 62.0960126,41.4473138 62.0917414,40.5338025 C62.0879727,39.7277631 62.2852126,37.9072975 62.683461,35.0724058 L62.7158473,34.8237552 L62.7672547,34.971542 C63.7220271,37.834504 64.5781769,39.9088335 65.3357041,41.1945307 L65.5087674,41.4772307 C65.925185,42.0691029 66.2949484,42.5127417 66.6180576,42.8081473 L66.6180576,42.8081473 L67.5873853,43.6943638 C68.7627861,44.4197608 70.1650512,44.5160575 71.7941806,43.983254 C72.482515,43.7516926 73.1472554,43.3889201 73.7884017,42.8949364 C74.4295481,42.4009527 75.0409015,41.6787238 75.622462,40.7282498 C76.2040225,39.7777757 76.5208584,38.7314614 76.5729695,37.5893069 C76.6250807,36.4471525 76.6465981,34.9054694 76.6375218,32.9642578 C76.7486848,32.1644048 76.8584386,29.8343938 76.9667831,25.9742247 C77.0751276,22.1140556 77.3324366,19.3951125 77.7387101,17.8173953 C78.1716787,21.949124 78.6496999,25.8865192 79.1727735,29.6295811 C79.4585718,31.7750593 79.7612314,33.8405257 80.0807524,35.8259802 C80.4002733,37.8114348 80.7539173,39.7225074 81.1416844,41.559198 C81.5294514,43.3958886 82.7355795,44.5493614 84.7600685,45.0196163 C86.6238038,45.5134519 88.4727388,45.2993692 90.3068736,44.3773683 C92.1868618,43.4323174 93.2838723,42.1368889 93.5979051,40.4910828 C93.3654349,39.9211994 93.4040216,39.5727375 93.7136653,39.4456971 C94.023309,39.3186567 94.3962014,39.2027433 94.8323423,39.097957 C95.2684832,38.9931707 95.6926269,38.779958 96.1047733,38.4583189 C96.8378933,37.9753296 96.9089269,35.9652333 96.317874,32.4280298 C95.0445954,25.5139119 93.1409665,18.9452789 90.6069872,12.722131 C88.6312569,7.93521666 86.9060005,5.11123739 85.431218,4.25019326 C85.2235431,4.06844607 84.6247798,3.79715177 83.634928,3.43631037 C83.2664994,3.27814379 82.9096675,3.14276194 82.5644325,3.03016482 C80.1008661,2.03665712 77.1155919,2.50720831 73.60861,4.44181839 C71.1136056,6.55446148 69.2650865,9.31501007 68.0630528,12.7234641 C66.7500919,12.0672172 65.4853869,11.9017704 64.2689379,12.2271237 C60.6649101,13.0659447 57.7722926,16.1510506 55.5910852,21.4824417 C54.4825958,20.3228084 53.1987604,19.7520706 51.739579,19.770228 C50.2803976,19.7883855 48.9317864,20.1086395 47.6937454,20.7309901 C46.4557045,21.3533407 45.4714587,22.191483 44.7410082,23.2454168 C44.0105577,24.2993507 43.8198186,25.2822774 44.168791,26.194197 C42.8822271,26.268653 42.34652,27.196077 42.5616695,28.9764691 C42.6112602,29.7527415 42.7302983,30.637175 42.9187839,31.6297696 C43.1072694,32.6223642 43.2497682,33.6094617 43.34628,34.5910619 C44.0711557,37.2597928 45.260587,43.4434731 46.914574,53.1421028 C47.7418345,58.0485121 48.435924,61.5053057 48.9968425,63.5124838 C49.2535742,64.3563145 49.8702666,64.7759748 50.8469198,64.7715007 C51.823573,64.7669546 52.8969305,64.5564535 54.0669923,64.1399613 Z M106.792473,38.631548 C109.991636,39.1861385 112.914229,38.8430009 115.56025,37.6021353 C118.115155,35.6859901 120.311933,33.7364705 122.150582,31.7535766 C123.36889,30.3283695 124.484087,28.3549935 125.496175,25.8334487 C125.348993,30.1282118 126.057982,33.553871 127.623141,36.1104263 C128.118748,36.8746924 128.559203,37.4030073 128.944505,37.695371 C129.329807,37.9877348 129.710311,38.3309429 130.086017,38.7249953 C132.607269,40.4474045 135.822419,41.1060675 139.731465,40.7009844 C141.504525,40.5071778 143.199251,40.049614 144.815642,39.328293 C146.432032,38.6069721 147.709485,37.6488995 148.647999,36.4540752 C149.586514,35.2592509 150.602576,33.7895505 151.696185,32.0449741 C155.67891,25.3892042 158.668774,19.4102798 160.665775,14.1082008 C162.301427,9.90085839 162.895436,7.16083248 162.447802,5.88812305 C161.458198,3.79553548 160.308701,2.30354443 158.999313,1.41214991 C158.270276,0.933878837 156.836171,0.543776038 154.696999,0.241841511 C152.32121,-0.287309156 150.457016,0.0518787858 149.104415,1.25940533 C148.484073,1.81709203 148.030801,2.51857672 147.7446,3.36385941 C147.458399,4.2091421 147.351664,4.93009808 147.424396,5.52672735 C147.497128,6.12335661 147.512308,6.5094569 147.469936,6.68502819 C147.427565,6.86059949 147.422364,7.0524577 147.454336,7.2606028 C147.129754,8.51264018 146.212811,10.299326 144.703504,12.6206602 C144.044783,13.5851016 143.362879,14.5217369 142.657794,15.4305662 C141.952709,16.3393955 141.324768,17.1143626 140.773971,17.7554674 C140.223175,18.3965722 139.79509,18.8311242 139.489716,19.0591232 C139.184343,19.2871222 139.076426,19.2001282 139.165967,18.7981413 C139.340252,18.0450117 139.574092,17.2076724 139.86749,16.2861232 C140.160888,15.364574 140.625777,13.4460008 141.262158,10.5304036 C141.951275,8.69684071 141.302989,7.63624365 139.3173,7.3486124 C138.447561,7.26756051 137.543846,7.27310232 136.606155,7.36523785 C135.668463,7.45737337 134.798321,7.51733535 133.995729,7.54512376 C133.193137,7.57291218 131.998038,7.79493386 130.410432,8.21118881 C129.34883,8.52258834 128.251649,9.07430652 127.11889,9.86634336 C125.986132,10.6583802 124.642723,11.9052319 123.088664,13.6068986 C123.366917,10.6579271 122.872955,7.6882835 121.60678,4.6979679 L121.60678,4.6979679 L121.613976,4.62170139 L121.537234,4.61454976 C121.331014,3.51821214 120.817022,2.6752957 119.995257,2.08580044 C119.173493,1.49630518 118.238209,1.15268802 117.189406,1.05494898 C116.140603,0.957209928 115.108582,1.09184621 114.093344,1.45885783 C113.078105,1.82586945 112.299482,2.42009721 111.757475,3.24154111 C111.611976,3.68960462 111.416506,4.5305198 111.171065,5.76428665 C110.925625,6.9980535 110.007455,10.0284419 108.416556,14.8554519 C107.848951,16.4951729 107.273353,18.0828577 106.689762,19.6185062 C106.106171,21.1541547 105.60812,22.4669633 105.195609,23.5569322 C103.564755,27.7134303 102.638986,30.961099 102.418303,33.2999385 C102.293569,34.6218913 102.364296,35.5132593 102.630484,35.9740428 C102.896672,36.4348262 103.35911,37.0036582 104.017796,37.6805389 C104.797994,38.1635777 105.722886,38.4805807 106.792473,38.631548 Z M160.460326,46.0072036 C162.003021,48.142701 164.862486,50.2136934 169.038719,52.2201807 C170.891947,53.1168544 172.809889,53.9032421 174.792545,54.5793438 C176.775201,55.2554455 178.600625,55.6926341 180.268817,55.8909096 C181.937009,56.089185 183.325898,55.9778024 184.435485,55.5567618 C185.545072,55.1357212 186.147874,54.361861 186.24389,53.2351814 C186.339906,52.1085018 186.31577,51.4146768 186.171481,51.1537065 C186.027191,50.8927362 185.866268,50.7108002 185.688711,50.6078985 C185.511154,50.5049968 185.350231,50.3230608 185.205942,50.0620904 C185.061653,49.8011201 185.044922,49.1707036 185.155751,48.1708409 C184.733909,46.8622732 184.010665,45.9406355 182.986021,45.4059279 C181.961377,44.8712203 180.83041,44.4670217 179.593119,44.1933323 C178.355829,43.9196429 177.149985,43.6937361 175.975587,43.5156119 C174.80119,43.3374877 173.853316,42.9507252 173.131967,42.3553244 C172.295856,41.0431363 171.940646,40.1278821 172.066335,39.6095618 C173.361006,40.2416448 175.57486,41.0812936 178.707898,42.128508 C179.902669,42.5253462 180.964272,42.845008 181.892707,43.0874936 C182.821142,43.3299792 183.823543,43.4970987 184.899911,43.5888521 C187.951456,43.7612107 190.481403,43.4539328 192.489752,42.6670185 C194.523987,41.8359897 196.957532,39.8175882 199.790388,36.6118138 C201.820691,34.0641351 202.955923,31.825353 203.196084,29.8954675 C203.572863,26.2121542 202.055957,23.3230915 198.645366,21.2282797 C195.456721,19.262095 192.000016,18.0568598 188.27525,17.6125741 C185.05353,17.2233597 181.674723,17.6594083 178.138828,18.92072 C174.085122,20.354869 170.778604,21.9855791 168.219273,23.8128501 C162.671579,27.6916803 159.309935,31.9506741 158.134342,36.5898315 C157.2619,40.1041195 158.037227,43.2432435 160.460326,46.0072036 Z M177.103049,33.9555361 L176.831464,33.769738 C177.59701,32.9719626 178.425449,32.2697525 179.316781,31.6631076 C182.486344,29.3027476 185.105069,29.0469206 187.172958,30.8956265 C187.047268,31.4139468 186.602561,31.969069 185.838837,32.5609931 C185.075112,33.1529172 184.162496,33.6437738 183.10099,34.0335627 C180.326998,34.9088016 178.237156,34.82086 176.831464,33.769738 L177.103049,33.9555361 Z M187.288133,62.4114099 C186.077319,63.8717679 186.51598,65.2086956 188.604116,66.422193 C189.534677,66.9252779 190.633461,67.3219125 191.900467,67.6120967 C193.167474,67.9022809 194.347051,68.0606004 195.439199,68.0870552 C196.531347,68.1135099 197.506922,67.9641451 198.365925,67.6389606 C199.224927,67.3137761 200.133019,66.8600337 201.0902,66.2777335 C202.085216,65.7299878 203.165625,65.0521609 204.331425,64.2442527 C205.497225,63.4363445 206.895161,62.5283396 208.525232,61.5202379 C222.519918,52.8009678 235.886166,45.5537598 248.623977,39.7786138 C249.429816,39.0580952 249.849634,37.8116411 249.883432,36.0392515 C249.92538,35.3146458 249.996471,34.633995 250.096706,33.9972991 C250.19694,33.3606032 250.491979,32.815124 250.981823,32.3608614 C249.643296,29.9593555 247.755591,28.7555186 245.318709,28.7493506 C244.371773,28.7168023 243.475962,28.8176422 242.631279,29.0518701 C241.786595,29.286098 241.075365,29.4514769 240.497587,29.5480068 C230.161963,32.8008176 219.687221,37.487086 209.073363,43.6068119 C204.669928,46.1046986 200.744054,48.5012253 197.295743,50.7963919 C193.847432,53.0915585 190.86442,54.9967415 188.346707,56.5119409 C186.615392,57.7050025 185.990544,58.8335623 186.472162,59.8976203 C186.635768,60.3244622 186.871212,60.7302184 187.178495,61.1148888 C187.485779,61.4995593 187.522325,61.931733 187.288133,62.4114099 Z M206.224509,85.7710968 C206.296695,85.7794197 206.498597,85.9299316 206.830215,86.2226327 C207.161834,86.5153337 207.535826,86.7583919 207.952192,86.9518074 C209.13748,87.4519917 213.335625,86.427409 220.546626,83.8780592 C222.716986,83.1467853 224.941884,82.3400068 227.221319,81.4577237 C229.500755,80.5754406 231.711793,79.7307118 233.854435,78.9235374 C235.997076,78.116363 237.986971,77.3642818 239.824119,76.6672938 C241.661267,75.9703058 243.222733,75.4414699 244.508518,75.0807862 L244.508518,75.0807862 L244.568939,75.0332241 L245.279033,75.0605681 C246.540102,76.4782974 249.041895,78.5480119 252.784412,81.2697117 C253.430899,81.9985918 254.227538,82.3812612 255.174331,82.4177199 C256.121124,82.4541786 256.990644,82.2908784 257.782893,81.9278194 C258.575141,81.5647603 259.213744,81.0294889 259.698702,80.3220053 C260.18366,79.6145216 260.285853,78.8174655 260.00528,77.9308369 C259.724707,77.0442083 259.392986,76.3607083 259.010119,75.8803368 L259.010119,75.8803368 L258.340101,75.0396868 C258.084856,74.7194391 257.822033,74.307437 257.551632,73.8036804 C256.89677,73.1465393 256.30572,72.5694601 255.778481,72.0724429 L255.778481,72.0724429 L255.083338,71.4470098 C254.851624,71.2385322 254.551912,70.9858621 254.184201,70.6889996 C254.481319,70.6505522 254.725994,70.6696746 254.918224,70.7463668 C255.110455,70.8230591 255.548156,70.7553802 256.231329,70.5433303 L256.231329,70.5433303 L261.979675,69.243079 C263.144619,68.9775194 264.082537,68.7766648 264.793428,68.6405154 C265.504319,68.5043659 266.132954,68.3678206 266.679333,68.2308793 C267.225712,68.0939381 267.802301,67.9332158 268.4091,67.7487125 C269.0159,67.5642091 269.904264,67.2394962 271.074192,66.7745736 C272.24412,66.309651 273.056805,65.4581922 273.512247,64.2201971 C273.96769,62.982202 274.104178,61.7346963 273.921712,60.4776801 C273.739246,59.2206639 273.327261,58.1280342 272.685758,57.1997911 C272.044255,56.271548 271.329872,55.8892745 270.542607,56.0529706 C269.484942,55.7129101 268.720208,55.3702716 268.248405,55.0250553 C267.776602,54.6798389 267.38875,54.3988305 267.08485,54.1820299 C266.468676,53.8201677 265.461462,53.8312711 264.063211,54.21534 L264.063211,54.21534 L263.0887,54.1029809 L262.79916,54.2331827 C259.587884,54.4809181 256.213097,55.3459662 252.674798,56.828327 C251.138956,57.4509981 249.671112,58.1178616 248.271268,58.8289175 C246.871423,59.5399734 245.491718,60.2351752 244.132154,60.9145231 C243.749287,60.4341516 243.469714,60.1656275 243.293437,60.1089508 C243.221251,60.1006279 243.115065,60.0702088 242.974881,60.0176934 C242.834696,59.9651781 242.352823,59.6278888 241.529262,59.0058255 C240.705701,58.3837621 239.589606,57.6825299 238.180979,56.9021288 C237.460713,56.4919128 236.408828,55.7889958 235.025325,54.7933777 C233.72079,54.0613305 232.542283,53.8163941 231.489805,54.0585686 C230.437328,54.300743 229.596424,54.7672491 228.967094,55.458087 C228.337765,56.1489248 227.948524,56.9765013 227.799371,57.9408165 C227.650219,58.9051317 227.810748,59.7233909 228.280957,60.3955943 L228.280957,60.3955943 L228.328816,60.4556407 C229.039114,61.2645827 229.794676,61.8424537 230.595504,62.1892536 C231.01187,62.382669 231.539109,62.8796863 232.177222,63.6803054 C222.020565,67.9621081 213.134741,72.4813162 205.51975,77.2379295 C204.828203,77.5217184 204.388509,77.998131 204.20067,78.6671672 C204.012831,79.3362035 204.044144,80.3213259 204.294608,81.6225345 C204.545073,82.9237431 205.188373,84.3065972 206.224509,85.7710968 Z" id="umwelt" fill-rule="nonzero"></path>
            <circle id="Oval" cx="113.5" cy="76.5" r="21.5"></circle>
        </g>
    </g>
</svg>